<svg xmlns="http://www.w3.org/2000/svg" version="1.1" xmlns:xlink="http://www.w3.org/1999/xlink" xmlns:svgjs="http://svgjs.dev/svgjs" width="1000" height="249" viewBox="0 0 1000 249"><g transform="matrix(1,0,0,1,-0.6060606060605096,0.5615995605052291)"><svg viewBox="0 0 396 99" data-background-color="#ffffff" preserveAspectRatio="xMidYMid meet" height="249" width="1000" xmlns="http://www.w3.org/2000/svg" xmlns:xlink="http://www.w3.org/1999/xlink"><g id="tight-bounds" transform="matrix(1,0,0,1,0.23999999999995225,-0.22328657224906578)"><svg viewBox="0 0 395.52 99.44657314449812" height="99.44657314449812" width="395.52"><g><svg viewBox="0 0 566.1849585837587 142.3572863499049" height="99.44657314449812" width="395.52"><g transform="matrix(1,0,0,1,170.6649585837587,41.20135595192492)"><svg viewBox="0 0 395.52 59.95457444605508" height="59.95457444605508" width="395.52"><g id="textblocktransform"><svg viewBox="0 0 395.52 59.95457444605508" height="59.95457444605508" width="395.52" id="textblock"><g><svg viewBox="0 0 395.52 59.95457444605508" height="59.95457444605508" width="395.52"><g transform="matrix(1,0,0,1,0,0)"><svg width="395.52" viewBox="2.15 -35.8 241.44 36.6" height="59.95457444605508" data-palette-color="#77d4fc"><path d="M19.15 0.8L19.15 0.8Q14.05 0.8 10.2-1.4 6.35-3.6 4.25-7.58 2.15-11.55 2.15-16.85L2.15-16.85Q2.15-20.35 3.23-23.7 4.3-27.05 6.48-29.8 8.65-32.55 11.93-34.18 15.2-35.8 19.55-35.8L19.55-35.8Q21.2-35.8 23-35.5 24.8-35.2 26.53-34.6 28.25-34 29.65-33.15L29.65-33.15 29.45-35.45 32.55-35.45 32.55-23.95 30.25-23.95Q30-26.95 28.58-29.03 27.15-31.1 24.93-32.18 22.7-33.25 20-33.25L20-33.25Q17.35-33.25 15.18-32.08 13-30.9 11.4-28.83 9.8-26.75 8.93-23.95 8.05-21.15 8.05-17.95L8.05-17.95Q8.05-13.35 9.58-9.78 11.1-6.2 13.9-4.15 16.7-2.1 20.45-2.1L20.45-2.1Q21.65-2.1 23.08-2.33 24.5-2.55 25.93-3.03 27.35-3.5 28.5-4.25L28.5-4.25 28.5-9.85Q28.5-11.1 28.53-12.33 28.55-13.55 28.55-14.6L28.55-14.6Q27.75-14.55 26.75-14.5 25.75-14.45 25-14.4L25-14.4 25-17.15 36.95-17.15 36.95-14.95Q35.75-14.95 35.02-14.4 34.3-13.85 33.98-13.03 33.65-12.2 33.55-11.28 33.45-10.35 33.45-9.55L33.45-9.55 33.45-1.75 32.15-1.75Q31.1-1.75 29.7-1.43 28.3-1.1 26.55-0.45L26.55-0.45Q25 0.1 23 0.45 21 0.8 19.15 0.8ZM52.9-35L52.9-32.8Q51.3-32.75 50.55-32.13 49.8-31.5 49.6-30.33 49.4-29.15 49.4-27.25L49.4-27.25 49.4-6.7Q49.4-5.35 49.37-4.28 49.35-3.2 49.25-2.55L49.25-2.55Q50.1-2.65 51.12-2.68 52.15-2.7 52.9-2.75L52.9-2.75 52.9 0 40.6 0 40.6-2.2Q42.25-2.3 42.97-2.9 43.7-3.5 43.9-4.7 44.1-5.9 44.1-7.75L44.1-7.75 44.1-28.55Q44.1-29.65 44.15-30.68 44.2-31.7 44.25-32.45L44.25-32.45Q43.4-32.4 42.4-32.35 41.4-32.3 40.6-32.25L40.6-32.25 40.6-35 52.9-35ZM74.2 0.8L74.2 0.8Q69.1 0.8 65.25-1.4 61.4-3.6 59.3-7.58 57.2-11.55 57.2-16.85L57.2-16.85Q57.2-20.35 58.27-23.7 59.35-27.05 61.52-29.8 63.7-32.55 66.97-34.18 70.25-35.8 74.6-35.8L74.6-35.8Q76.25-35.8 78.05-35.5 79.85-35.2 81.57-34.6 83.3-34 84.7-33.15L84.7-33.15 84.5-35.45 87.6-35.45 87.6-23.95 85.3-23.95Q85.05-26.95 83.62-29.03 82.2-31.1 79.97-32.18 77.75-33.25 75.05-33.25L75.05-33.25Q72.4-33.25 70.22-32.08 68.05-30.9 66.45-28.83 64.85-26.75 63.97-23.95 63.1-21.15 63.1-17.95L63.1-17.95Q63.1-13.35 64.62-9.78 66.15-6.2 68.95-4.15 71.75-2.1 75.5-2.1L75.5-2.1Q76.7-2.1 78.12-2.33 79.55-2.55 80.97-3.03 82.4-3.5 83.55-4.25L83.55-4.25 83.55-9.85Q83.55-11.1 83.57-12.33 83.6-13.55 83.6-14.6L83.6-14.6Q82.8-14.55 81.8-14.5 80.8-14.45 80.05-14.4L80.05-14.4 80.05-17.15 92-17.15 92-14.95Q90.8-14.95 90.07-14.4 89.35-13.85 89.02-13.03 88.7-12.2 88.6-11.28 88.5-10.35 88.5-9.55L88.5-9.55 88.5-1.75 87.2-1.75Q86.15-1.75 84.75-1.43 83.35-1.1 81.6-0.45L81.6-0.45Q80.05 0.1 78.05 0.45 76.05 0.8 74.2 0.8ZM111.74 0.8L111.74 0.8Q106.64 0.8 102.79-1.4 98.94-3.6 96.84-7.58 94.74-11.55 94.74-16.85L94.74-16.85Q94.74-20.35 95.82-23.7 96.89-27.05 99.07-29.8 101.24-32.55 104.52-34.18 107.79-35.8 112.14-35.8L112.14-35.8Q113.79-35.8 115.59-35.5 117.39-35.2 119.12-34.6 120.84-34 122.24-33.15L122.24-33.15 122.04-35.45 125.14-35.45 125.14-23.95 122.84-23.95Q122.59-26.95 121.17-29.03 119.74-31.1 117.52-32.18 115.29-33.25 112.59-33.25L112.59-33.25Q109.94-33.25 107.77-32.08 105.59-30.9 103.99-28.83 102.39-26.75 101.52-23.95 100.64-21.15 100.64-17.95L100.64-17.95Q100.64-13.35 102.17-9.78 103.69-6.2 106.49-4.15 109.29-2.1 113.04-2.1L113.04-2.1Q114.24-2.1 115.67-2.33 117.09-2.55 118.52-3.03 119.94-3.5 121.09-4.25L121.09-4.25 121.09-9.85Q121.09-11.1 121.12-12.33 121.14-13.55 121.14-14.6L121.14-14.6Q120.34-14.55 119.34-14.5 118.34-14.45 117.59-14.4L117.59-14.4 117.59-17.15 129.54-17.15 129.54-14.95Q128.34-14.95 127.62-14.4 126.89-13.85 126.57-13.03 126.24-12.2 126.14-11.28 126.04-10.35 126.04-9.55L126.04-9.55 126.04-1.75 124.74-1.75Q123.69-1.75 122.29-1.43 120.89-1.1 119.14-0.45L119.14-0.45Q117.59 0.1 115.59 0.45 113.59 0.8 111.74 0.8ZM149.94 0.8L149.94 0.8Q145.19 0.8 141.82-0.8 138.44-2.4 136.34-5.08 134.24-7.75 133.24-11 132.24-14.25 132.24-17.5L132.24-17.5Q132.24-20.65 133.32-23.88 134.39-27.1 136.57-29.8 138.74-32.5 142.02-34.15 145.29-35.8 149.69-35.8L149.69-35.8Q154.29-35.8 157.62-34.15 160.94-32.5 163.09-29.78 165.24-27.05 166.32-23.85 167.39-20.65 167.39-17.5L167.39-17.5Q167.39-14.4 166.32-11.18 165.24-7.95 163.07-5.23 160.89-2.5 157.64-0.85 154.39 0.8 149.94 0.8ZM150.19-1.8L150.19-1.8Q153.09-1.8 155.22-3.1 157.34-4.4 158.72-6.58 160.09-8.75 160.74-11.38 161.39-14 161.39-16.6L161.39-16.6Q161.39-19.8 160.64-22.78 159.89-25.75 158.37-28.13 156.84-30.5 154.59-31.88 152.34-33.25 149.39-33.25L149.39-33.25Q146.49-33.25 144.34-31.9 142.19-30.55 140.84-28.38 139.49-26.2 138.82-23.58 138.14-20.95 138.14-18.3L138.14-18.3Q138.14-15.7 138.84-12.8 139.54-9.9 140.99-7.4 142.44-4.9 144.72-3.35 146.99-1.8 150.19-1.8ZM189.24 0.8L189.24 0.8Q184.49 0.8 181.11-0.8 177.74-2.4 175.64-5.08 173.54-7.75 172.54-11 171.54-14.25 171.54-17.5L171.54-17.5Q171.54-20.65 172.61-23.88 173.69-27.1 175.86-29.8 178.04-32.5 181.31-34.15 184.59-35.8 188.99-35.8L188.99-35.8Q193.59-35.8 196.91-34.15 200.24-32.5 202.39-29.78 204.54-27.05 205.61-23.85 206.69-20.65 206.69-17.5L206.69-17.5Q206.69-14.4 205.61-11.18 204.54-7.95 202.36-5.23 200.19-2.5 196.94-0.85 193.69 0.8 189.24 0.8ZM189.49-1.8L189.49-1.8Q192.39-1.8 194.51-3.1 196.64-4.4 198.01-6.58 199.39-8.75 200.04-11.38 200.69-14 200.69-16.6L200.69-16.6Q200.69-19.8 199.94-22.78 199.19-25.75 197.66-28.13 196.14-30.5 193.89-31.88 191.64-33.25 188.69-33.25L188.69-33.25Q185.79-33.25 183.64-31.9 181.49-30.55 180.14-28.38 178.79-26.2 178.11-23.58 177.44-20.95 177.44-18.3L177.44-18.3Q177.44-15.7 178.14-12.8 178.84-9.9 180.29-7.4 181.74-4.9 184.01-3.35 186.29-1.8 189.49-1.8ZM210.89 0L210.89-2.2Q212.54-2.3 213.26-2.9 213.99-3.5 214.19-4.7 214.39-5.9 214.39-7.75L214.39-7.75 214.39-28.55Q214.39-29.65 214.44-30.68 214.49-31.7 214.54-32.45L214.54-32.45Q213.69-32.4 212.69-32.35 211.69-32.3 210.89-32.25L210.89-32.25 210.89-35 223.64-35.05Q228.29-35.05 231.99-33.85 235.69-32.65 238.29-30.38 240.89-28.1 242.24-24.85 243.59-21.6 243.59-17.6L243.59-17.6Q243.59-14.25 242.44-11.1 241.29-7.95 238.91-5.48 236.54-3 232.94-1.5 229.34 0 224.44 0L224.44 0 210.89 0ZM219.69-27.3L219.69-6.65Q219.69-5.3 219.66-4.25 219.64-3.2 219.54-2.55L219.54-2.55Q220.59-2.55 221.64-2.53 222.69-2.5 223.51-2.5 224.34-2.5 224.69-2.5L224.69-2.5Q227.79-2.5 230.19-3.65 232.59-4.8 234.26-6.85 235.94-8.9 236.81-11.6 237.69-14.3 237.69-17.35L237.69-17.35Q237.69-22.25 236.09-25.65 234.49-29.05 231.26-30.85 228.04-32.65 223.24-32.7L223.24-32.7Q221.59-32.7 220.84-32.13 220.09-31.55 219.89-30.35 219.69-29.15 219.69-27.3L219.69-27.3Z" opacity="1" transform="matrix(1,0,0,1,0,0)" fill="#77d4fc" class="wordmark-text-0" data-fill-palette-color="primary" id="text-0"></path></svg></g></svg></g></svg></g></svg></g><g><svg viewBox="0 0 142.3572863499049 142.3572863499049" height="142.3572863499049" width="142.3572863499049"><g><svg></svg></g><g id="icon-0"><svg viewBox="0 0 142.3572863499049 142.3572863499049" height="142.3572863499049" width="142.3572863499049"><g><path d="M0 71.179c0-39.311 31.868-71.179 71.179-71.179 39.311 0 71.179 31.868 71.178 71.179 0 39.311-31.868 71.179-71.178 71.178-39.311 0-71.179-31.868-71.179-71.178zM71.179 136.951c36.325 0 65.772-29.447 65.772-65.772 0-36.325-29.447-65.772-65.772-65.772-36.325 0-65.772 29.447-65.772 65.772 0 36.325 29.447 65.772 65.772 65.772z" data-fill-palette-color="accent" fill="#4b91f1" stroke="transparent"></path></g><g transform="matrix(1,0,0,1,44.90259518051435,33.31285599608587)"><svg viewBox="0 0 52.5520959888762 75.73157435773317" height="75.73157435773317" width="52.5520959888762"><g><svg xmlns="http://www.w3.org/2000/svg" xmlns:xlink="http://www.w3.org/1999/xlink" version="1.1" x="0" y="0" viewBox="18.746674830009052 5 62.45332516999095 90" enable-background="new 0 0 100 100" xml:space="preserve" height="75.73157435773317" width="52.5520959888762" class="icon-z$-0" data-fill-palette-color="accent" id="z$-0"><path d="M81.2 65.4L81 24.5c0-1.7-1-3.1-2.5-3.6-0.5-0.2-0.9-0.3-1.5-0.3-2.2 0-3.9 1.8-3.9 4l0.1 23.1c0 0.5-0.2 1-0.6 1.4-0.4 0.4-0.9 0.6-1.4 0.6-0.3 0-0.5 0-0.7-0.1-0.7-0.3-1.2-1-1.3-1.8l-0.2-35c0-1.7-1-3.1-2.5-3.6-0.5-0.2-0.9-0.3-1.5-0.3-2.2 0-3.9 1.8-3.9 4l0.2 35c0 0.5-0.2 1-0.6 1.4-0.4 0.4-0.9 0.6-1.4 0.6-0.3 0-0.5 0-0.7-0.1-0.7-0.3-1.2-1-1.3-1.8L57.3 8.9c0-1.7-1-3.1-2.5-3.6C54.3 5.1 53.8 5 53.3 5c-2.2 0-3.9 1.8-3.9 4l0.2 38.9c0 0.5-0.2 1-0.6 1.4-0.4 0.4-0.9 0.6-1.4 0.6-0.3 0-0.5 0-0.7-0.1-0.7-0.3-1.2-1-1.3-1.8 0 0 1.3-16.4-11.6-17.4-11.2-0.9-14.5 8.9-14.5 8.9-3.2 10.3 4.7 12.1 6.8 8 0 0 0.6-1.4 0.4-4-0.2-2.8 2.4-5.7 7-4.5 5 1.2 4.1 11.2 4.1 11.2l0 0L37.8 60c0 0.3-0.2 0.6-0.5 0.7-0.2 0.1-0.3 0-0.5 0-0.1 0-0.2-0.1-0.3-0.2l-5-3.4c0 0-2.1-6.5-4.3-7.7C26.7 49 26.1 49 25.4 49c-1 0-2.1 0.3-2.9 1-1.8 1.4-2.4 3.8-1.6 5.9 0.2 0.4 4.2 9.4 4.2 9.4L44 92.1c0.7 1.1 1.8 2 3 2.5 0.7 0.3 1.5 0.4 2.4 0.4l19.2-0.1c2.9 0 5.4-2 6.1-4.7L81.2 65.4C81.2 65.4 81.2 65.4 81.2 65.4L81.2 65.4zM81.2 65.4" fill="#4b91f1" data-fill-palette-color="accent"></path></svg></g></svg></g></svg></g></svg></g></svg></g><defs></defs></svg><rect width="395.52" height="99.44657314449812" fill="none" stroke="none" visibility="hidden"></rect></g></svg></g></svg>